<svg xmlns="http://www.w3.org/2000/svg" xmlns:xlink="http://www.w3.org/1999/xlink" width="85" height="85" viewBox="0 0 85 85" fill="none"><g opacity="1" transform="translate(0 0)  rotate(0 42.5 42.50000000000001)"><path  id="矩形 1" style="stroke:#262626; stroke-width:2; stroke-opacity:1; stroke-dasharray:2 2" transform="translate(0 0)  rotate(0 42.5 42.5)" d="M0,85L85,85L85,0L0,0L0,85Z " /><path  id="直线 1" style="stroke:#000000; stroke-width:1; stroke-opacity:1; stroke-dasharray:2 2" transform="translate(0 0)  rotate(0 42.49925599796926 42.49925599796926)" d="M0,0L85,85 " /><path  id="直线 2" style="stroke:#000000; stroke-width:1; stroke-opacity:1; stroke-dasharray:2 2" transform="translate(0 0)  rotate(0 42.5 42.50000000000001)" d="M85,0L0,85 " /><path id="直线 3"  style="fill:#CCCCCC" transform="translate(0 43)  rotate(0 42.499929565079285 0.0005)" opacity="1" d="" /><path  id="直线 3" style="stroke:#000000; stroke-width:1; stroke-opacity:1; stroke-dasharray:2 2" transform="translate(0 43)  rotate(0 42.499929565079285 0.0005)" d="M0,0L85,0 " /><path id="直线 4"  style="fill:#CCCCCC" transform="translate(43 0)  rotate(0 0.0005 41.99992786295554)" opacity="1" d="" /><path  id="直线 4" style="stroke:#000000; stroke-width:1; stroke-opacity:1; stroke-dasharray:2 2" transform="translate(43 0)  rotate(0 0.0005 41.99992786295554)" d="M0,0L0,84 " /></g></svg>